<svg version="1.1" id="Layer_1" xmlns="http://www.w3.org/2000/svg" xmlns:xlink="http://www.w3.org/1999/xlink" x="0px" y="0px"
	 width="100%" viewBox="0 0 256 256" enable-background="new 0 0 256 256" xml:space="preserve">
<path fill="#444E5A" opacity="1.000000" stroke="none" 
	d="
M146.000000,257.000000 
	C97.333336,257.000000 49.166672,257.000000 1.000006,257.000000 
	C1.000004,171.666672 1.000004,86.333351 1.000002,1.000012 
	C84.999985,1.000000 169.000015,1.026723 252.999817,0.904056 
	C256.424011,0.899055 257.101105,1.575684 257.096008,5.000103 
	C256.972870,87.666580 256.972839,170.333328 257.095978,252.999802 
	C257.101074,256.423981 256.426300,257.114563 252.999619,257.098999 
	C217.500320,256.938019 182.000015,257.000000 146.000000,257.000000 
z"/>
<path fill="#DBB001" opacity="1.000000" stroke="none" 
	d="
M49.161964,213.663055 
	C38.507973,205.967194 30.824764,196.001938 24.434027,185.395721 
	C5.007205,153.154541 0.932219,118.592285 14.010637,83.311501 
	C30.039417,40.071697 61.862034,14.613170 107.204514,6.125531 
	C107.499863,6.070245 107.840256,6.255584 108.632141,6.436547 
	C90.742355,26.214266 80.400345,49.146664 79.332085,75.700455 
	C78.262527,102.286354 86.191330,126.162910 102.873611,147.441681 
	C104.118347,150.064758 102.183807,151.028458 100.959930,152.267044 
	C95.857162,157.431152 93.578964,163.400681 96.248718,170.464539 
	C98.975960,177.680496 104.710159,180.869095 112.143799,181.373428 
	C116.303040,181.655624 120.476501,181.371338 124.637489,181.559341 
	C133.858444,181.976028 140.725967,188.636673 141.298325,197.640900 
	C141.815948,205.783600 136.142776,212.712082 127.464729,214.640335 
	C124.678391,215.259460 121.881805,215.501053 119.036430,215.500000 
	C98.373749,215.492355 77.710968,215.530334 57.048527,215.453842 
	C54.469948,215.444305 51.663315,216.112808 49.161964,213.663055 
z"/>
<path fill="#D3DBD9" opacity="1.000000" stroke="none" 
	d="
M48.600365,213.519958 
	C73.976173,213.077011 99.080406,212.890167 124.181953,212.521042 
	C132.887115,212.393051 138.649506,206.775040 138.924332,198.723206 
	C139.194748,190.800613 133.176437,184.765732 124.398178,184.269119 
	C120.083344,184.025024 115.756729,183.995804 111.439415,183.787216 
	C101.715157,183.317368 95.127975,178.347595 92.990746,169.938721 
	C90.686859,160.874146 94.045288,153.232666 102.845016,147.917236 
	C105.409958,146.644241 107.859802,146.442505 110.388672,146.411758 
	C151.511749,145.911835 192.634430,146.213516 233.756989,146.202789 
	C243.291824,146.200302 252.234879,156.762878 252.059937,164.341461 
	C251.822189,174.640823 244.334183,183.072861 234.286255,183.585678 
	C232.125412,183.695984 229.961533,183.747070 227.351440,183.922974 
	C221.484543,187.849503 215.113617,185.868240 208.757416,186.978119 
	C201.073715,186.213669 193.907227,185.003448 186.600815,185.415436 
	C184.103821,185.556229 181.853241,185.814011 180.417572,188.731735 
	C175.588669,191.011536 173.602310,194.615097 174.028305,199.368332 
	C174.469604,204.292389 177.362732,207.504135 181.946091,209.244370 
	C186.418793,210.942596 191.097717,210.309128 195.707306,210.545059 
	C198.070541,210.666016 200.773361,209.737839 202.772171,212.558044 
	C205.957138,213.016327 208.968277,213.456375 211.932877,213.244629 
	C222.223007,212.509644 230.034592,223.603226 229.940460,232.119186 
	C229.828308,242.261063 221.792282,250.414291 211.510147,250.530365 
	C159.254105,251.120331 106.997429,251.108688 54.740982,250.557327 
	C44.431084,250.448547 36.996044,244.841660 35.399467,236.015564 
	C33.525028,225.653381 38.234665,217.525665 48.600365,213.519958 
z"/>
<path fill="#DAAF01" opacity="1.000000" stroke="none" 
	d="
M182.865433,105.203194 
	C175.876602,107.472191 170.052185,111.387947 163.845398,114.550697 
	C159.513809,116.757896 157.594818,115.472733 158.138870,110.617027 
	C158.693695,105.665077 159.484863,100.717659 160.549683,95.850769 
	C161.687393,90.650742 159.987564,86.855766 156.002884,83.574600 
	C152.426178,80.629364 148.953735,77.509506 145.768387,74.150803 
	C142.732468,70.949677 143.554810,68.901619 147.942139,68.187637 
	C153.521942,67.279610 159.123962,66.493912 164.732300,65.780602 
	C168.141052,65.347046 170.388397,63.849697 171.833710,60.535313 
	C174.157272,55.206955 176.866058,50.037598 179.593781,44.897476 
	C181.595398,41.125637 183.420380,41.139164 185.430771,44.937687 
	C188.230713,50.228073 191.018585,55.542557 193.425262,61.016594 
	C194.825668,64.201851 197.013718,65.501198 200.236206,65.891426 
	C205.353241,66.511078 210.445786,67.330879 215.559433,67.981583 
	C217.590866,68.240074 219.708557,68.382751 220.557846,70.585564 
	C221.501617,73.033386 219.314529,74.180405 217.965714,75.474136 
	C214.736618,78.571297 211.463394,81.645668 207.986099,84.454544 
	C204.252274,87.470642 203.570282,91.165298 204.448410,95.598183 
	C205.352814,100.163872 206.036148,104.775291 206.732986,109.379311 
	C207.055115,111.507645 207.554794,113.905258 205.488846,115.377533 
	C203.654587,116.684692 202.032730,114.962700 200.493866,114.191971 
	C194.704407,111.292381 188.980988,108.260948 182.865433,105.203194 
z"/>
<path fill="#DBB002" opacity="1.000000" stroke="none" 
	d="
M207.485748,184.305023 
	C213.962692,184.051498 219.976669,183.959122 226.447235,183.943634 
	C220.567001,194.731903 212.210785,203.755280 203.119690,212.583435 
	C197.345215,212.803909 191.719803,212.828430 186.101837,212.636292 
	C179.671844,212.416382 174.406311,209.982330 172.096313,203.568024 
	C169.791290,197.167572 171.316544,191.536774 176.879562,186.862518 
	C184.878250,184.574524 192.813721,186.028473 200.589676,185.060379 
	C202.707336,184.796738 204.874756,184.633041 207.485748,184.305023 
z"/>
<path fill="#606560" opacity="1.000000" stroke="none" 
	d="
M207.487244,184.079849 
	C198.227371,187.599869 188.156036,187.085129 177.648834,186.727203 
	C179.489731,184.743225 182.245132,184.326187 185.112000,184.289307 
	C192.416534,184.195374 199.721161,184.106644 207.487244,184.079849 
z"/>
</svg>