<?xml version="1.0" encoding="UTF-8" standalone="no"?>
<!DOCTYPE svg PUBLIC "-//W3C//DTD SVG 1.1//EN" "http://www.w3.org/Graphics/SVG/1.1/DTD/svg11.dtd">
<svg width="1280.00" height="256.00" viewBox="0.00 0.00 1280.00 256.00" xmlns="http://www.w3.org/2000/svg" xmlns:xlink="http://www.w3.org/1999/xlink">
<g stroke-linecap="round" id="ChaoticNotes_2">
<path d="M759.50,53.50 C762.38,56.29 766.29,60.57 766.50,61.50 C766.64,62.15 766.34,62.85 766.50,63.50 C766.68,64.22 767.34,64.77 767.50,65.50 C767.63,66.16 767.22,66.89 767.50,67.50 C768.00,68.59 769.26,69.32 769.50,70.50 C769.63,71.23 768.50,71.76 768.50,72.50 C768.50,73.56 769.68,74.46 769.50,75.50 C769.32,76.43 768.01,76.70 767.50,77.50 C767.15,78.07 767.62,78.84 767.50,79.50 C767.36,80.23 766.41,81.81 766.44,83.65 C766.45,83.82 766.66,140.11 766.50,141.50 C766.48,141.70 765.47,147.82 765.41,153.11 C765.45,177.68 765.68,185.19 765.50,185.50 C765.26,185.90 764.50,186.03 764.50,186.50 C764.51,187.25 765.64,188.86 765.52,190.14 C765.36,192.27 766.11,196.52 766.50,198.50" fill="none" stroke="rgb(215, 0, 53)" stroke-width="14.88" stroke-opacity="1.00" stroke-linejoin="round"/>
<path d="M860.50,54.50 C861.35,56.00 861.65,57.00 861.55,58.57 C861.26,63.84 863.04,78.55 862.00,82.13 C861.45,84.00 861.34,90.54 861.34,94.59 C861.43,100.21 864.16,116.56 862.50,132.50 C861.47,138.68 861.41,152.39 861.42,160.71 C861.50,171.79 861.77,177.72 861.50,178.50 C861.25,179.23 859.58,182.17 859.50,182.50 C859.40,182.95 860.78,187.62 861.28,192.36 C861.35,193.08 861.43,193.79 861.50,194.50" fill="none" stroke="rgb(215, 0, 53)" stroke-width="14.88" stroke-opacity="1.00" stroke-linejoin="round"/>
<path d="M134.50,157.50 C131.35,161.45 128.10,165.10 124.58,168.18 C122.36,170.11 114.98,175.99 113.08,176.90 C112.70,177.08 109.90,178.06 109.50,178.50 C109.00,179.06 108.98,179.93 108.50,180.50 C106.89,182.39 86.69,189.24 84.02,189.81 C82.39,190.17 80.11,191.01 78.99,191.66 C77.86,192.31 72.22,193.38 71.50,193.50 C70.56,193.66 62.28,193.25 61.50,193.50 C60.79,193.73 60.25,194.51 59.50,194.50 C58.76,194.50 57.24,193.39 56.09,193.48 C54.00,193.62 46.41,192.64 42.40,192.04 C38.96,191.50 25.86,186.04 23.50,183.50 C20.88,180.62 16.35,174.66 14.92,172.28 C13.28,169.52 11.70,162.18 11.50,161.50 C10.64,158.95 10.44,156.80 10.46,151.56 C10.52,146.24 10.40,142.02 10.50,141.50 C10.55,141.23 12.92,125.82 13.50,123.50 C13.67,122.80 18.05,106.64 19.50,103.50 C19.68,103.12 30.32,86.92 33.55,82.78 C35.84,79.89 40.02,75.49 42.50,73.50 C45.00,71.52 50.71,68.08 53.91,66.56 C57.20,65.05 62.49,64.21 66.50,64.50 C74.19,65.13 78.97,65.92 86.99,69.42 C88.53,70.12 89.94,73.11 90.50,74.50" fill="none" stroke="rgb(215, 0, 53)" stroke-width="14.88" stroke-opacity="1.00" stroke-linejoin="round"/>
<path d="M769.50,70.50 C771.35,73.30 774.50,76.57 776.50,77.50 C778.34,78.37 778.89,78.81 780.32,80.72 C783.98,85.58 785.98,89.76 786.50,90.50 C786.50,90.51 793.73,98.55 795.39,101.23 C795.92,102.10 800.24,109.18 802.40,111.95 C804.55,114.68 809.69,120.06 811.50,122.50 C812.90,124.40 821.48,138.09 825.70,143.39 C828.47,146.86 839.61,162.90 844.61,170.28 C846.72,173.30 850.78,179.06 853.05,180.33 C856.24,181.85 858.28,183.45 859.50,184.50" fill="none" stroke="rgb(215, 0, 53)" stroke-width="14.88" stroke-opacity="1.00" stroke-linejoin="round"/>
<path d="M772.50,74.50 C772.50,74.50 769.50,75.50 769.50,75.50" fill="none" stroke="rgb(215, 0, 53)" stroke-width="14.88" stroke-opacity="1.00" stroke-linejoin="round"/>
<path d="M855.50,181.50 C855.50,181.50 859.50,180.50 859.50,180.50" fill="none" stroke="rgb(215, 0, 53)" stroke-width="14.88" stroke-opacity="1.00" stroke-linejoin="round"/>
<path d="M859.50,180.50 C859.50,180.50 859.50,184.50 859.50,184.50" fill="none" stroke="rgb(215, 0, 53)" stroke-width="14.88" stroke-opacity="1.00" stroke-linejoin="round"/>
<path d="M415.50,118.50 C422.14,116.03 428.97,120.43 429.50,120.50 C430.16,120.60 430.90,120.20 431.50,120.50 C431.96,120.73 434.04,124.25 434.50,124.50 C434.75,124.64 437.51,124.43 438.31,124.81 C439.50,125.40 441.14,127.23 441.93,128.84 C442.11,129.22 446.49,138.42 446.50,138.50 C446.58,138.98 446.43,142.03 446.50,142.50 C446.58,143.06 447.39,145.38 447.50,146.50 C447.87,150.61 443.98,167.92 442.28,171.04 C441.63,172.24 440.90,176.16 438.74,179.11 C436.17,182.57 430.57,189.73 429.52,190.53 C427.53,191.98 416.96,195.28 415.50,195.50 C414.11,195.68 413.43,195.48 411.61,194.39 C410.27,193.59 408.39,193.72 407.83,193.78 C406.62,193.91 404.68,193.19 402.98,191.96 C399.48,189.34 395.73,185.81 394.50,183.50 C393.88,182.29 391.63,178.02 391.50,177.50 C391.35,176.85 391.44,175.05 390.56,172.70 C389.23,169.06 389.29,166.19 390.04,163.72 C390.62,161.59 390.69,156.36 391.50,153.50 C393.11,147.95 399.11,136.43 401.16,133.35 C402.14,131.89 403.97,130.28 404.50,129.50 C404.93,128.89 404.98,128.03 405.50,127.50 C406.02,126.97 408.18,126.10 409.47,124.79 C410.90,123.35 414.07,119.07 415.50,118.50 Z" fill="none" stroke="rgb(108, 36, 99)" stroke-width="14.88" stroke-opacity="1.00" stroke-linejoin="round"/>
<path d="M929.50,118.50 C936.14,116.03 942.97,120.43 943.50,120.50 C944.16,120.60 944.90,120.20 945.50,120.50 C945.96,120.73 948.04,124.25 948.50,124.50 C948.75,124.64 951.51,124.43 952.31,124.81 C953.50,125.40 955.14,127.23 955.93,128.84 C956.11,129.22 960.49,138.42 960.50,138.50 C960.58,138.98 960.43,142.03 960.50,142.50 C960.58,143.06 961.39,145.38 961.50,146.50 C961.87,150.61 957.98,167.92 956.28,171.04 C955.63,172.24 954.90,176.16 952.74,179.11 C950.17,182.57 944.57,189.73 943.52,190.53 C941.53,191.98 930.96,195.28 929.50,195.50 C928.11,195.68 927.43,195.48 925.61,194.39 C924.27,193.59 922.39,193.72 921.83,193.78 C920.62,193.91 918.68,193.19 916.98,191.96 C913.48,189.34 909.73,185.81 908.50,183.50 C907.88,182.29 905.63,178.02 905.50,177.50 C905.35,176.85 905.44,175.05 904.56,172.70 C903.23,169.06 903.29,166.19 904.04,163.72 C904.62,161.59 904.69,156.36 905.50,153.50 C907.11,147.95 913.11,136.43 915.16,133.35 C916.14,131.89 917.97,130.28 918.50,129.50 C918.93,128.89 918.98,128.03 919.50,127.50 C920.02,126.97 922.18,126.10 923.47,124.79 C924.90,123.35 928.07,119.07 929.50,118.50 Z" fill="none" stroke="rgb(108, 36, 99)" stroke-width="14.88" stroke-opacity="1.00" stroke-linejoin="round"/>
<path d="M166.50,53.50 C169.87,56.15 172.96,57.89 174.13,59.40 C175.37,61.04 175.36,62.85 175.50,63.50 C175.65,64.23 176.85,66.29 177.09,67.83 C177.62,71.26 177.58,119.11 177.27,123.26 C177.09,125.32 176.61,131.00 176.60,131.04 C176.40,133.11 177.29,134.79 177.50,135.50 C177.61,135.87 177.39,149.14 177.50,149.50 C177.73,150.21 178.49,150.76 178.50,151.50 C178.51,152.25 177.30,153.96 177.19,155.61 C176.89,159.43 176.20,163.10 175.02,167.24 C174.34,169.61 174.50,173.49 174.06,174.99 C173.45,177.10 173.20,184.02 173.28,186.51 C173.41,190.08 175.56,197.99 175.50,199.50" fill="none" stroke="rgb(0, 0, 0)" stroke-width="14.88" stroke-opacity="1.00" stroke-linejoin="round"/>
<path d="M600.50,87.50 C605.16,91.53 609.04,95.50 609.90,98.63 C610.10,99.39 610.39,102.44 610.50,103.50" fill="none" stroke="rgb(0, 0, 0)" stroke-width="14.88" stroke-opacity="1.00" stroke-linejoin="round"/>
<path d="M510.50,107.50 C510.55,110.28 510.64,117.12 510.62,120.67 C510.58,124.36 508.83,130.55 508.69,132.57 C508.48,136.00 508.60,143.70 508.50,144.50 C508.00,146.50 506.43,156.93 506.43,162.29 C506.48,165.96 506.53,173.75 506.37,176.00 C506.17,179.08 506.85,181.92 508.75,186.32 C509.48,187.96 509.17,189.92 509.50,190.50 C509.83,191.05 514.65,194.19 515.50,194.50 C516.58,194.89 519.44,194.47 519.50,194.50 C519.92,194.71 520.03,195.48 520.50,195.50 C521.25,195.52 522.78,194.36 524.00,194.12 C526.14,193.65 533.33,191.12 535.49,190.13 C539.04,188.46 542.73,185.34 546.50,181.50" fill="none" stroke="rgb(0, 0, 0)" stroke-width="14.88" stroke-opacity="1.00" stroke-linejoin="round"/>
<path d="M1024.50,107.50 C1024.55,110.28 1024.64,117.12 1024.62,120.67 C1024.58,124.36 1022.83,130.55 1022.69,132.57 C1022.48,136.00 1022.60,143.70 1022.50,144.50 C1022.00,146.50 1020.43,156.93 1020.43,162.29 C1020.48,165.96 1020.53,173.75 1020.37,176.00 C1020.17,179.08 1020.85,181.92 1022.75,186.32 C1023.48,187.96 1023.17,189.92 1023.50,190.50 C1023.83,191.05 1028.65,194.19 1029.50,194.50 C1030.58,194.89 1033.44,194.47 1033.50,194.50 C1033.92,194.71 1034.03,195.48 1034.50,195.50 C1035.25,195.52 1036.78,194.36 1038.00,194.12 C1040.14,193.65 1047.33,191.12 1049.49,190.13 C1053.04,188.46 1056.73,185.34 1060.50,181.50" fill="none" stroke="rgb(0, 0, 0)" stroke-width="14.88" stroke-opacity="1.00" stroke-linejoin="round"/>
<path d="M1269.50,127.50 C1269.69,125.14 1269.33,123.97 1267.63,122.45 C1264.43,119.47 1259.11,115.01 1257.19,114.66 C1254.52,114.20 1251.81,112.63 1249.50,112.50 C1248.98,112.48 1245.65,111.53 1244.90,111.45 C1242.03,111.14 1236.23,112.81 1231.87,114.52 C1230.09,115.24 1227.94,116.22 1227.26,116.73 C1227.08,116.87 1218.26,125.54 1217.50,126.50 C1216.36,127.96 1213.46,134.08 1213.50,134.50 C1213.58,135.24 1214.52,136.57 1214.50,138.50 C1214.52,140.36 1216.45,144.50 1218.50,146.50 C1220.36,148.27 1224.50,150.50 1226.50,151.50 C1229.29,153.09 1231.03,153.68 1236.46,155.05 C1240.55,156.04 1250.04,158.36 1250.50,158.50 C1251.75,158.89 1257.31,162.03 1260.11,163.56 C1261.82,164.59 1263.48,166.83 1264.03,168.76 C1264.26,169.66 1264.17,170.63 1264.50,171.50 C1264.75,172.20 1265.51,172.76 1265.50,173.50 C1265.47,174.25 1264.70,174.78 1264.50,175.50 C1264.31,176.14 1264.39,177.90 1263.13,179.60 C1260.49,183.08 1255.57,187.04 1252.15,189.01 C1245.46,192.81 1235.99,196.66 1235.50,196.50 C1235.06,196.35 1234.38,195.42 1233.23,195.52 C1230.79,195.70 1223.15,193.73 1220.50,192.50 C1214.80,189.79 1209.57,182.89 1206.50,178.50" fill="none" stroke="rgb(0, 0, 0)" stroke-width="14.88" stroke-opacity="1.00" stroke-linejoin="round"/>
<path d="M1108.50,159.50 C1109.96,160.34 1111.02,160.65 1112.93,160.65 C1114.53,160.65 1118.04,160.65 1118.50,160.50 C1119.21,160.27 1119.78,159.68 1120.50,159.50 C1121.15,159.33 1122.83,159.45 1125.28,158.53 C1127.68,157.63 1134.27,156.78 1137.61,155.24 C1139.47,154.35 1143.35,152.30 1144.50,151.50 C1146.23,150.29 1149.60,147.08 1150.50,146.50 C1151.13,146.09 1151.97,146.02 1152.50,145.50 C1153.03,144.98 1153.81,142.94 1155.07,141.49 C1156.36,139.96 1156.50,138.50 1156.50,137.50 C1156.70,136.78 1157.49,136.25 1157.50,135.50 C1157.50,134.76 1156.32,133.00 1156.49,131.50 C1156.64,129.97 1155.64,128.23 1155.50,127.50 C1155.36,126.85 1155.77,126.11 1155.50,125.50 C1155.30,125.08 1147.13,119.04 1144.93,118.63 C1144.45,118.56 1142.24,117.58 1141.50,117.50 C1141.11,117.47 1134.42,120.95 1133.50,121.50 C1127.92,124.91 1110.60,146.17 1110.50,146.50 C1110.33,147.15 1110.81,147.91 1110.50,148.50 C1110.07,149.34 1108.99,149.69 1108.50,150.50 C1108.47,150.56 1107.34,159.07 1106.50,160.50 C1106.15,161.10 1103.99,163.24 1103.50,164.50 C1103.12,165.50 1103.51,178.52 1104.50,180.50 C1105.65,182.72 1111.83,188.99 1113.98,190.10 C1114.77,190.49 1117.48,190.50 1117.50,190.50 C1117.79,190.57 1120.71,192.30 1121.50,192.50 C1122.16,192.67 1125.18,192.45 1125.50,192.50 C1126.08,192.58 1128.41,193.42 1129.50,193.50 C1130.62,193.58 1138.91,192.27 1139.84,192.06 C1140.99,191.79 1145.31,189.49 1147.22,189.10 C1149.45,188.63 1154.67,186.07 1157.50,184.50 C1161.16,182.44 1164.69,179.51 1167.86,175.95 C1169.87,173.67 1175.51,166.90 1177.50,164.50" fill="none" stroke="rgb(0, 0, 0)" stroke-width="14.88" stroke-opacity="1.00" stroke-linejoin="round"/>
<path d="M720.50,129.50 C720.22,126.80 718.39,123.53 715.50,121.50 C712.82,119.69 709.42,119.49 707.99,119.06 C705.76,118.41 699.16,118.26 697.50,118.50 C695.70,118.79 692.65,119.78 691.50,120.50 C690.56,121.11 676.84,136.59 674.50,140.50 C673.50,142.50 669.56,148.76 669.29,149.20 C667.56,151.97 665.57,157.46 664.23,161.93 C663.11,165.78 662.54,169.15 662.40,172.94 C662.29,177.07 663.03,181.76 664.50,184.50 C664.98,185.34 667.05,188.35 667.50,188.50 C668.14,188.71 668.86,188.31 669.50,188.50 C669.83,188.59 672.75,191.19 673.50,191.50 C674.19,191.79 677.37,191.49 677.50,191.50 C678.04,191.53 681.00,192.44 681.50,192.50 C682.20,192.59 685.11,192.36 685.50,192.50 C686.20,192.76 686.76,193.50 687.50,193.50 C688.25,193.50 690.00,192.34 692.22,192.46 C695.96,192.60 700.92,191.76 704.64,190.47 C707.70,189.40 711.29,188.63 713.22,187.60 C715.42,186.42 721.13,184.74 723.50,183.50 C727.12,181.59 736.65,173.99 739.50,171.50" fill="none" stroke="rgb(0, 0, 0)" stroke-width="14.88" stroke-opacity="1.00" stroke-linejoin="round"/>
<path d="M232.50,197.50 C232.66,195.50 230.28,191.38 230.34,189.77 C230.52,187.23 230.39,164.39 230.50,163.50 C231.00,161.50 231.71,157.95 231.65,152.65 C231.59,148.85 230.66,145.76 230.50,143.50 C230.47,143.06 228.57,131.63 228.50,131.50 C228.02,130.69 223.28,125.03 221.87,124.36 C220.61,123.79 212.84,121.65 211.50,121.50 C209.57,121.30 203.13,121.59 201.50,122.50 C200.40,123.13 192.91,129.04 191.50,130.50 C189.38,132.69 187.37,136.16 186.50,136.50 C186.06,136.66 185.91,135.74 185.50,135.50 C185.01,135.19 178.65,135.45 177.50,135.50" fill="none" stroke="rgb(0, 0, 0)" stroke-width="14.88" stroke-opacity="1.00" stroke-linejoin="round"/>
<path d="M545.50,131.50 C542.47,130.45 526.70,130.48 519.96,130.56 C516.66,130.61 509.13,129.96 509.00,130.00 C508.09,130.33 507.46,131.37 506.50,131.50 C505.76,131.61 503.82,130.23 502.50,130.50 C502.46,130.51 496.64,131.79 492.50,131.50 C490.72,131.37 483.81,130.64 482.50,130.50" fill="none" stroke="rgb(0, 0, 0)" stroke-width="14.88" stroke-opacity="1.00" stroke-linejoin="round"/>
<path d="M1059.50,131.50 C1056.47,130.45 1040.70,130.48 1033.96,130.56 C1030.66,130.61 1023.13,129.96 1023.00,130.00 C1022.09,130.33 1021.46,131.37 1020.50,131.50 C1019.76,131.61 1017.82,130.23 1016.50,130.50 C1016.46,130.51 1010.64,131.79 1006.50,131.50 C1004.72,131.37 997.81,130.64 996.50,130.50" fill="none" stroke="rgb(0, 0, 0)" stroke-width="14.88" stroke-opacity="1.00" stroke-linejoin="round"/>
<path d="M606.50,131.50 C605.39,139.86 605.68,146.88 604.99,149.28 C604.90,149.58 603.20,176.43 603.71,182.14 C604.07,185.92 606.44,193.04 606.50,193.50 C606.57,193.99 606.57,194.99 606.50,196.50" fill="none" stroke="rgb(0, 0, 0)" stroke-width="14.88" stroke-opacity="1.00" stroke-linejoin="round"/>
<path d="M333.50,154.50 C332.22,155.65 330.23,157.24 329.50,157.50 C328.93,157.71 326.49,157.83 325.50,158.50 C324.55,159.16 311.81,174.29 309.78,175.67 C307.57,177.19 301.94,184.12 300.50,185.50 C298.22,187.65 292.66,190.60 288.97,191.72 C282.61,193.48 281.13,193.75 277.70,192.65 C275.00,191.72 273.27,190.93 272.69,190.13 C270.47,186.91 268.92,171.69 269.50,169.50 C269.66,168.90 273.50,159.50 274.50,157.50 C274.70,156.98 275.30,153.99 275.50,153.50 C275.59,153.27 277.27,150.35 277.50,149.50 C277.69,148.83 278.26,144.18 278.50,143.50 C278.75,142.81 288.67,127.63 294.50,123.50 C297.09,121.70 305.16,118.11 306.85,118.09 C307.73,118.10 312.14,120.48 314.31,120.80 C316.47,121.16 322.63,126.40 324.10,128.40 C325.92,131.18 329.43,136.20 330.50,136.50 C331.44,136.77 334.84,135.72 335.50,136.50 C337.64,139.24 334.31,154.13 334.50,154.50 C335.05,155.57 336.03,156.39 336.50,157.50 C336.52,157.54 337.56,163.03 337.80,166.46 C338.17,171.67 338.95,175.88 340.13,178.53 C342.01,182.61 347.78,194.11 349.71,197.32 C350.77,199.07 352.11,199.85 354.50,200.50" fill="none" stroke="rgb(0, 0, 0)" stroke-width="14.88" stroke-opacity="1.00" stroke-linejoin="round"/>
<path d="M178.50,151.50 C182.65,140.87 185.01,137.10 186.50,136.50" fill="none" stroke="rgb(0, 0, 0)" stroke-width="14.88" stroke-opacity="1.00" stroke-linejoin="round"/>
</g>
</svg>
